<svg xmlns="http://www.w3.org/2000/svg" width="54.601" height="54.601" viewBox="0 0 54.601 54.601"><defs><style>.a{fill:#fff;}</style></defs><path class="a" d="M363.8,420.55a1.138,1.138,0,0,1-1.137-1.138v-2.275a1.137,1.137,0,1,1,2.275,0v2.275A1.138,1.138,0,0,1,363.8,420.55Z" transform="translate(-323.991 -371.637)"/><path class="a" d="M335.786,322.983H331.8a1.137,1.137,0,0,1,0-2.275h3.981a1.706,1.706,0,0,0,0-3.413h-1.138a3.981,3.981,0,0,1,0-7.963h3.981a1.138,1.138,0,1,1,0,2.275h-3.981a1.706,1.706,0,1,0,0,3.413h1.138a3.981,3.981,0,1,1,0,7.963Z" transform="translate(-295.404 -276.345)"/><path class="a" d="M363.8,292.55a1.138,1.138,0,0,1-1.137-1.138v-2.275a1.137,1.137,0,1,1,2.275,0v2.275A1.138,1.138,0,0,1,363.8,292.55Z" transform="translate(-323.991 -257.287)"/><path class="a" d="M249.455,264.242a14.788,14.788,0,1,1,14.788-14.788A14.8,14.8,0,0,1,249.455,264.242Zm0-27.3a12.513,12.513,0,1,0,12.513,12.513A12.526,12.526,0,0,0,249.455,236.942Z" transform="translate(-209.642 -209.642)"/><path class="a" d="M19.338,47.776H5.688A5.7,5.7,0,0,1,0,42.088V5.688A5.7,5.7,0,0,1,5.688,0H30.713A5.7,5.7,0,0,1,36.4,5.688v13.65a1.138,1.138,0,1,1-2.275,0V5.688a3.417,3.417,0,0,0-3.413-3.413H5.688A3.417,3.417,0,0,0,2.275,5.688v36.4A3.417,3.417,0,0,0,5.688,45.5h13.65a1.138,1.138,0,1,1,0,2.275Z"/><path class="a" d="M65.133,163a1.136,1.136,0,0,1-.805-1.941l5.688-5.688a1.131,1.131,0,0,1,1.313-.214l3.818,1.909,7.382-7.383a1.137,1.137,0,0,1,1.608,1.608l-7.963,7.963a1.14,1.14,0,0,1-1.313.214l-3.817-1.909-5.108,5.108A1.133,1.133,0,0,1,65.133,163Z" transform="translate(-57.17 -133.422)"/><path class="a" d="M178.63,158.433a1.138,1.138,0,0,1-1.137-1.138v-5.688H171.8a1.138,1.138,0,0,1,0-2.275h6.825a1.138,1.138,0,0,1,1.138,1.138V157.3A1.138,1.138,0,0,1,178.63,158.433Z" transform="translate(-152.467 -133.408)"/></svg>