<svg xmlns="http://www.w3.org/2000/svg" width="62.161" height="62.161" viewBox="0 0 62.161 62.161"><defs><style>.a{fill:#fff;}</style></defs><g transform="translate(0)"><path class="a" d="M246.628,253.786a1.295,1.295,0,1,1,0-2.59,25.93,25.93,0,0,0,25.9-25.9,1.3,1.3,0,0,1,2.59,0A28.524,28.524,0,0,1,246.628,253.786Z" transform="translate(-215.547 -196.804)"/><path class="a" d="M150.839,20.85a1.3,1.3,0,0,1-1.225-.87A25.873,25.873,0,0,0,125.171,2.59,25.245,25.245,0,0,0,109.2,8.182a1.294,1.294,0,1,1-1.621-2.018A27.8,27.8,0,0,1,125.171,0a28.472,28.472,0,0,1,26.893,19.13,1.3,1.3,0,0,1-.8,1.65A1.352,1.352,0,0,1,150.839,20.85Z" transform="translate(-94.09)"/><path class="a" d="M40.758,142a1.315,1.315,0,0,1-.43-.073,28.459,28.459,0,0,1-19-26.838,28.01,28.01,0,0,1,4.942-15.963,1.294,1.294,0,1,1,2.132,1.466,25.463,25.463,0,0,0-4.483,14.5,25.861,25.861,0,0,0,17.265,24.393,1.3,1.3,0,0,1-.43,2.518Z" transform="translate(-18.743 -86.599)"/><path class="a" d="M241.137,418.3a1.3,1.3,0,0,1-.917-.378l-5.18-5.18a1.3,1.3,0,0,1,0-1.831l5.18-5.18a1.295,1.295,0,0,1,1.831,1.831l-4.263,4.263,4.263,4.263a1.3,1.3,0,0,1,0,1.831A1.282,1.282,0,0,1,241.137,418.3Z" transform="translate(-206.171 -356.136)"/><path class="a" d="M10.811,97.649a1.3,1.3,0,0,1-1.251-.958L7.885,90.436,1.63,92.112a1.295,1.295,0,1,1-.668-2.5L8.467,87.6a1.3,1.3,0,0,1,1.585.914l2.01,7.5a1.3,1.3,0,0,1-.914,1.588,1.38,1.38,0,0,1-.337.044Z" transform="translate(0 -76.929)"/><path class="a" d="M411.266,115.977a1.28,1.28,0,0,1-.647-.173l-6.729-3.885a1.3,1.3,0,1,1,1.3-2.243l5.607,3.238,3.238-5.608a1.3,1.3,0,1,1,2.243,1.3l-3.885,6.729a1.3,1.3,0,0,1-1.122.647Z" transform="translate(-354.285 -93.708)"/><g transform="translate(16.283 17.366)"><path class="a" d="M135.27,165.451a1.158,1.158,0,0,1-1.156-1.156v-18.27a1.158,1.158,0,0,1,1.156-1.156h2.5V144.2a1.158,1.158,0,0,1,1.156-1.156h3.654a1.158,1.158,0,0,1,1.156,1.156v.671h10.476V144.2a1.158,1.158,0,0,1,1.156-1.156h3.654a1.158,1.158,0,0,1,1.156,1.156v.671h2.5a1.158,1.158,0,0,1,1.156,1.156v18.27a1.158,1.158,0,0,1-1.156,1.156Zm26.249-2.313V147.181H136.427v15.957Z" transform="translate(-134.114 -143.041)"/><g transform="translate(4.642 6.281)"><path class="a" d="M175.329,200.745a1.158,1.158,0,0,1-1.156-1.156v-.671H173.5a1.156,1.156,0,1,1,0-2.313h.671v-.671a1.156,1.156,0,0,1,2.313,0v.671h.671a1.156,1.156,0,0,1,0,2.313h-.671v.671A1.158,1.158,0,0,1,175.329,200.745Z" transform="translate(-172.346 -194.778)"/></g><g transform="translate(19.308 8.108)"><path class="a" d="M294.305,212.139a1.156,1.156,0,0,1,0-2.313h3.654a1.156,1.156,0,1,1,0,2.313Z" transform="translate(-293.149 -209.826)"/></g></g></g></svg>