<svg xmlns="http://www.w3.org/2000/svg" width="47.682" height="47.682" viewBox="0 0 47.682 47.682"><defs><style>.a{fill:#fff;}</style></defs><g transform="translate(0 0.06)"><path class="a" d="M47.126,18.655A24,24,0,0,0,23.881-.06h-.04A23.791,23.791,0,0,0,5.563,39.019c0,.02.02.02.02.04.1.119.2.219.278.3a23.724,23.724,0,0,0,17.484,8.265h.02a.655.655,0,0,0,.338-.08.8.8,0,0,0,.536-.477.683.683,0,0,0,.1-.358.071.071,0,0,0,.02-.06.806.806,0,0,0-.08-.377c-.02,0,0-.02,0-.02a.6.6,0,0,0-.2-.3.565.565,0,0,0-.159-.14.7.7,0,0,0-.158-.1.634.634,0,0,0-.132-.047c-.047-.012-.1-.022-.146-.033h-.1c-2.563-.3-5.026-2.861-6.774-7.053a1,1,0,0,0-.926-.606.984.984,0,0,0-.9,1.381A18.246,18.246,0,0,0,18.219,44.9,21.851,21.851,0,0,1,8.066,38.84a26.975,26.975,0,0,1,5.5-1.946,1.018,1.018,0,0,0,.735-1.213,1,1,0,0,0-1.212-.715,27.821,27.821,0,0,0-6.377,2.345,22.1,22.1,0,0,1-3.309-5.822,21.66,21.66,0,0,1-1.4-6.716H11.94a42.562,42.562,0,0,0,.6,6.556.983.983,0,0,0,.974.815h.179a.991.991,0,0,0,.794-1.152q-.254-1.461-.39-3.02t-.166-3.2h6.457a.984.984,0,0,0,.994-.993,1,1,0,0,0-.994-.994H13.927a41.023,41.023,0,0,1,1.311-9.735,42.578,42.578,0,0,0,7.609.775v6.536a.994.994,0,0,0,1.987,0V13.827a42.578,42.578,0,0,0,7.609-.775,41.925,41.925,0,0,1,1.332,10.728c0,.318,0,.635-.02.933a1,1,0,0,0,.934,1.053,1.024,1.024,0,0,0,1.053-.934c.02-.337.02-.695.02-1.052a44.729,44.729,0,0,0-1.331-11.126,30.619,30.619,0,0,0,6.556-2.384,21.537,21.537,0,0,1,4.192,8.8,1,1,0,0,0,1.192.754A.979.979,0,0,0,47.126,18.655ZM11.94,22.787H2.007A21.749,21.749,0,0,1,6.675,10.271a29.355,29.355,0,0,0,6.576,2.384A43.928,43.928,0,0,0,11.94,22.787Zm1.888-12.059a29.164,29.164,0,0,1-5.8-2.007,21.714,21.714,0,0,1,10.212-6.06A20.671,20.671,0,0,0,13.828,10.728Zm9.02,1.112a42.15,42.15,0,0,1-7.053-.695c1.629-4.968,4.192-8.444,7.053-9.1Zm1.987,0V2.046c2.861.656,5.424,4.132,7.053,9.1A42.15,42.15,0,0,1,24.835,11.84ZM36.909,9.851a30.769,30.769,0,0,1-3.055.877,20.442,20.442,0,0,0-4.391-8.046A22.1,22.1,0,0,1,39.636,8.721,23.531,23.531,0,0,1,36.909,9.851Z"/><path class="a" d="M220.808,255.936a1,1,0,0,0-.993.993,4.969,4.969,0,0,1-4.967,4.967H202.927v-4.967a.988.988,0,0,0-1.689-.7l-8.94,8.94a.984.984,0,0,0,0,1.411l8.94,8.94a.993.993,0,0,0,.7.278,1.248,1.248,0,0,0,.377-.06,1,1,0,0,0,.616-.934v-4.967h7.947A10.934,10.934,0,0,0,221.8,258.916v-1.987A1,1,0,0,0,220.808,255.936Zm-9.934,11.921h-8.94a1,1,0,0,0-.993.993v3.576L194.4,265.87l6.536-6.536v3.556a.984.984,0,0,0,.993.993h12.914a6.915,6.915,0,0,0,4.252-1.45A8.952,8.952,0,0,1,210.874,267.857Z" transform="translate(-174.119 -232.155)"/><path class="a" d="M169.6,120.256h0Z" transform="translate(-153.805 -109.111)"/><path class="a" d="M60.228,420.288a.793.793,0,0,1-.278-.3C60.049,420.109,60.148,420.209,60.228,420.288Z" transform="translate(-54.367 -380.931)"/></g></svg>