<svg xmlns="http://www.w3.org/2000/svg" width="52.482" height="52.482" viewBox="0 0 52.482 52.482"><defs><style>.a{fill:#fff;}</style></defs><g transform="translate(-3 -3)"><g transform="translate(3 3)"><path class="a" d="M27.574,55.482A4.583,4.583,0,0,1,23,50.9V49.549l-.216-.069A21.206,21.206,0,0,1,19.5,48.118l-.2-.1-.96.96a4.577,4.577,0,0,1-6.474,0L9.508,46.618a4.577,4.577,0,0,1,0-6.474l.959-.959-.1-.2A21.191,21.191,0,0,1,9,35.7l-.069-.216H7.577A4.583,4.583,0,0,1,3,30.907V27.574A4.583,4.583,0,0,1,7.578,23H8.932L9,22.78A21.2,21.2,0,0,1,10.363,19.5l.1-.2-.96-.96a4.577,4.577,0,0,1,0-6.474l2.356-2.356a4.577,4.577,0,0,1,6.474,0l.959.959.2-.1A21.217,21.217,0,0,1,22.78,9L23,8.932V7.577A4.583,4.583,0,0,1,27.574,3h3.333a4.583,4.583,0,0,1,4.577,4.577V8.932L35.7,9a21.187,21.187,0,0,1,3.281,1.362l.2.1.96-.96a4.577,4.577,0,0,1,6.474,0l2.356,2.356a4.577,4.577,0,0,1,0,6.474l-.96.959.1.2A21.208,21.208,0,0,1,49.48,22.78l.069.216H50.9a4.583,4.583,0,0,1,4.578,4.577v3.333A4.583,4.583,0,0,1,50.9,35.485H49.549l-.069.216a21.218,21.218,0,0,1-1.362,3.281l-.1.2.96.96a4.577,4.577,0,0,1,0,6.474l-2.356,2.356a4.577,4.577,0,0,1-6.474,0l-.959-.959-.2.1A21.217,21.217,0,0,1,35.7,49.48l-.216.069V50.9a4.583,4.583,0,0,1-4.578,4.577ZM19.1,45.22a1.2,1.2,0,0,1,.62.175A18.657,18.657,0,0,0,24.552,47.4a1.244,1.244,0,0,1,.934,1.2v2.3a2.091,2.091,0,0,0,2.088,2.088h3.333A2.091,2.091,0,0,0,33,50.9v-2.3a1.244,1.244,0,0,1,.934-1.2A18.658,18.658,0,0,0,38.763,45.4a1.244,1.244,0,0,1,1.514.191L41.9,47.214a2.087,2.087,0,0,0,2.953,0l2.357-2.357a2.088,2.088,0,0,0,0-2.953l-1.628-1.628a1.245,1.245,0,0,1-.191-1.514A18.646,18.646,0,0,0,47.4,33.929,1.244,1.244,0,0,1,48.607,33h2.3a2.091,2.091,0,0,0,2.088-2.088V27.574A2.091,2.091,0,0,0,50.9,25.486h-2.3a1.245,1.245,0,0,1-1.205-.934A18.653,18.653,0,0,0,45.4,19.719a1.244,1.244,0,0,1,.191-1.514l1.627-1.627a2.088,2.088,0,0,0,0-2.953l-2.357-2.357a2.088,2.088,0,0,0-2.953,0L40.277,12.9a1.245,1.245,0,0,1-1.514.191,18.649,18.649,0,0,0-4.834-2.007A1.244,1.244,0,0,1,33,9.875v-2.3a2.091,2.091,0,0,0-2.088-2.088H27.575a2.091,2.091,0,0,0-2.088,2.088v2.3a1.244,1.244,0,0,1-.934,1.205,18.651,18.651,0,0,0-4.834,2.007A1.244,1.244,0,0,1,18.2,12.9l-1.627-1.627a2.088,2.088,0,0,0-2.953,0l-2.357,2.357a2.088,2.088,0,0,0,0,2.953L12.9,18.2a1.244,1.244,0,0,1,.191,1.514,18.645,18.645,0,0,0-2.007,4.834,1.244,1.244,0,0,1-1.205.934h-2.3a2.091,2.091,0,0,0-2.088,2.088v3.333A2.091,2.091,0,0,0,7.578,33h2.3a1.244,1.244,0,0,1,1.205.934,18.654,18.654,0,0,0,2.007,4.834,1.244,1.244,0,0,1-.191,1.514L11.268,41.9a2.088,2.088,0,0,0,0,2.953l2.357,2.357a2.077,2.077,0,0,0,1.479.612h0a2.069,2.069,0,0,0,1.473-.611L18.2,45.586A1.308,1.308,0,0,1,19.1,45.22Z" transform="translate(-3 -3)"/></g><g transform="translate(14.305 21.227)"><path class="a" d="M119.262,196.01a1.046,1.046,0,0,1-.969-.663l-4.547-11.737-.089-.032a2.49,2.49,0,0,1,.834-4.837H139.38a2.492,2.492,0,0,1,.833,4.84l-.09.032-4.546,11.735a1.046,1.046,0,0,1-.969.663Zm-4.77-15.192a.42.42,0,0,0-.414.414.414.414,0,0,0,.414.413,1.054,1.054,0,0,1,.979.664l4.5,11.623H133.9l4.5-11.624a1.046,1.046,0,0,1,.969-.663.414.414,0,1,0,.011-.828Z" transform="translate(-112 -178.74)"/></g></g></svg>