<svg xmlns="http://www.w3.org/2000/svg" width="82" height="73.345" viewBox="0 0 82 73.345"><defs><style>.a{fill:#fff;}</style></defs><g transform="translate(0)"><g transform="translate(0 0)"><g transform="translate(45.241 31.244)"><path class="a" d="M-455.415,146.929l-6.594-.087a.861.861,0,0,1-.694-.368l-7.137-10.238a.859.859,0,0,1,.1-1.1l8.965-8.919a.867.867,0,0,1,.606-.25l7.321-.005-6.564-10.819a.855.855,0,0,1-.095-.67.85.85,0,0,1,.419-.531l16.571-9.007a.845.845,0,0,1,.408-.1.867.867,0,0,1,.745.422l7.322,12.41.02.043.024.037a6.78,6.78,0,0,1,.763,3.112,6.822,6.822,0,0,1-1.037,3.594l-.013.021-.028.058-10.067,16.337a12.845,12.845,0,0,1-10.86,6.065Zm-4.4-19.242-8.2,8.16,6.472,9.284,6.295.082a11.117,11.117,0,0,0,9.4-5.248l7.7-12.49-1,.131a6.921,6.921,0,0,1-.9.065h-.1Zm2.34-12.664,6.637,10.939,10.677-.008.023,0,.04,0h.049a4.982,4.982,0,0,0,3.648-1.542,5.159,5.159,0,0,0,1.444-3.552,5.053,5.053,0,0,0-.574-2.325l-.013-.024-6.884-11.667Z" transform="translate(469.996 -104.83)"/></g><g transform="translate(0 33.034)"><path class="a" d="M-719.807,155.755a6.694,6.694,0,0,1-4.861-2.061,6.913,6.913,0,0,1-.824-1.035l-.016-.024-.011-.013-10.626-15.976a12.718,12.718,0,0,1-2.136-7.067,12.81,12.81,0,0,1,1.233-5.466l.023-.039.018-.044,3.1-5.7a.857.857,0,0,1,.585-.432l12.009-2.437a.872.872,0,0,1,.173-.018.861.861,0,0,1,.806.564l4.352,11.874a.867.867,0,0,1-.026.655l-2.827,6.149h13.014a.865.865,0,0,1,.608.253.865.865,0,0,1,.252.608V154.9a.865.865,0,0,1-.252.608.865.865,0,0,1-.608.252h-13.659l-.064-.006-.268.006Zm.336-1.719h12.79V136.407h-12.943l-4.741,10.316-.013.022-.012.032a5.084,5.084,0,0,0-.495,2.171,5.151,5.151,0,0,0,1.452,3.553,4.973,4.973,0,0,0,3.631,1.536c.078,0,.157,0,.238,0ZM-732.586,119.5l-2.9,5.333-.006.012a11.106,11.106,0,0,0-1.066,4.73,11.016,11.016,0,0,0,1.848,6.115l8.125,12.215.3-.958a6.86,6.86,0,0,1,.344-.9l.014-.03.006-.017,4.847-10.548.011-.059a.853.853,0,0,1,.174-.377l.036-.045,3.138-6.828-3.975-10.847Z" transform="translate(738.28 -115.445)"/></g><g transform="translate(16.28 0)"><path class="a" d="M-624.765-53.915a.859.859,0,0,1-.459-.133l-16.112-10.173a.857.857,0,0,1-.283-1.163l6.889-11.723.011-.014.015-.029a6.763,6.763,0,0,1,2.567-2.473,6.88,6.88,0,0,1,3.264-.828l.073,0,.041,0h19.19a12.821,12.821,0,0,1,10.941,6.194l.015.029.016.024,3.171,5.644a.856.856,0,0,1,.045.752l-4.765,11.447a.858.858,0,0,1-.794.53.863.863,0,0,1-.2-.024l-12.3-2.953a.867.867,0,0,1-.531-.385l-3.876-6.278-6.168,11.114a.861.861,0,0,1-.539.416A.861.861,0,0,1-624.765-53.915ZM-633.208-76.3l-6.508,11.072,14.639,9.242,6.2-11.162-5.6-9.066-.009-.019-.023-.033a5.029,5.029,0,0,0-1.906-1.842,5.107,5.107,0,0,0-2.445-.62,5.149,5.149,0,0,0-2.454.619,5.015,5.015,0,0,0-1.89,1.807ZM-612.693-60.4l11.239,2.7,4.322-10.383-2.96-5.27a11.1,11.1,0,0,0-9.477-5.378H-624.23l.63.779a7.075,7.075,0,0,1,.551.782l.013.022.016.021Z" transform="translate(641.74 80.451)"/></g></g></g></svg>