<svg xmlns="http://www.w3.org/2000/svg" width="80" height="80" viewBox="0 0 80 80"><defs><style>.a{fill:#fff;}</style></defs><g transform="translate(0)"><g transform="translate(0 0)"><g transform="translate(37.179 48.713)"><path class="a" d="M-1195.454,212.209a1.075,1.075,0,0,1-1.074-1.074V182a1.075,1.075,0,0,1,1.074-1.074A1.075,1.075,0,0,1-1194.38,182v29.139A1.075,1.075,0,0,1-1195.454,212.209Z" transform="translate(1196.528 -180.922)"/></g><g transform="translate(20.624 48.716)"><path class="a" d="M-1292.708,196.792a1.062,1.062,0,0,1-.785-.34c-4.39-4.706-16.291-13.488-16.409-13.574a1.066,1.066,0,0,1-.424-.7,1.062,1.062,0,0,1,.2-.8,1.065,1.065,0,0,1,.867-.437,1.073,1.073,0,0,1,.637.208c.494.364,12.194,9.007,16.7,13.836a1.068,1.068,0,0,1,.288.77,1.068,1.068,0,0,1-.341.749A1.07,1.07,0,0,1-1292.708,196.792Z" transform="translate(1310.338 -180.942)"/></g><g transform="translate(37.178 49.814)"><path class="a" d="M-1195.464,204.706a1.075,1.075,0,0,1-.557-.157,1.067,1.067,0,0,1-.485-.663,1.066,1.066,0,0,1,.126-.812c.3-.493,7.478-12.118,17.038-14.549a1.031,1.031,0,0,1,.269-.036,1.082,1.082,0,0,1,1.035.812,1.063,1.063,0,0,1-.116.813,1.067,1.067,0,0,1-.66.493c-8.636,2.2-15.443,13.117-15.728,13.581A1.067,1.067,0,0,1-1195.464,204.706Z" transform="translate(1196.538 -188.488)"/></g><path class="a" d="M-1388.039-99.626a15.851,15.851,0,0,1-11.833-5.342,15.979,15.979,0,0,1-1.338-1.727l-.387-.578-.529.452a15.829,15.829,0,0,1-10.269,3.815,15.756,15.756,0,0,1-10.939-4.4l-.468-.448-.426.488a15.866,15.866,0,0,1-11.951,5.459,16.042,16.042,0,0,1-15.932-16.11,16.038,16.038,0,0,1,15.928-16.109,15.518,15.518,0,0,1,2.111.143l.86.118-.169-.851a16.071,16.071,0,0,1-.3-3.122,16.04,16.04,0,0,1,15.93-16.111,16,16,0,0,1,14.386,9.223l.189.4.441-.05a16.339,16.339,0,0,1,1.837-.1,15.812,15.812,0,0,1,15.433,12.464l.089.393.4.078a16.071,16.071,0,0,1,12.874,15.806A16.038,16.038,0,0,1-1388.039-99.626Zm-12.347-9.928a13.937,13.937,0,0,0,2.12,3.159,13.7,13.7,0,0,0,10.227,4.621,13.888,13.888,0,0,0,13.781-13.962,13.888,13.888,0,0,0-12.175-13.861l-.813-.1-.122-.809a13.712,13.712,0,0,0-13.538-11.828,14.237,14.237,0,0,0-2.743.27l-.9.177-.318-.857a13.851,13.851,0,0,0-12.891-9.06,13.889,13.889,0,0,0-13.782,13.964,14.027,14.027,0,0,0,.979,5.144l.838,2.134-2.176-.722a13.556,13.556,0,0,0-4.284-.7,13.609,13.609,0,0,0-9.742,4.085,13.963,13.963,0,0,0-4.041,9.877,13.889,13.889,0,0,0,13.784,13.96,13.739,13.739,0,0,0,11.408-6.126l.81-1.206.916,1.129a13.676,13.676,0,0,0,10.652,5.1,13.718,13.718,0,0,0,10.24-4.642l1.064-1.2Z" transform="translate(1452.11 153.947)"/></g></g></svg>