<svg xmlns="http://www.w3.org/2000/svg" width="80" height="80.015" viewBox="0 0 80 80.015"><defs><style>.a{fill:#fff;}</style></defs><g transform="translate(0)"><g transform="translate(0)"><g transform="translate(12.061)"><path class="a" d="M-956.114,558.281a1.068,1.068,0,0,1-1.067-1.067,37.922,37.922,0,0,0-37.879-37.879,37.7,37.7,0,0,0-26.123,10.475,1.063,1.063,0,0,1-.736.295h0a1.058,1.058,0,0,1-.772-.331,1.061,1.061,0,0,1-.295-.762,1.06,1.06,0,0,1,.33-.747,39.821,39.821,0,0,1,27.6-11.064,40.058,40.058,0,0,1,40.013,40.013A1.068,1.068,0,0,1-956.114,558.281Z" transform="translate(1022.986 -517.201)"/></g><g transform="translate(12.061 0)"><path class="a" d="M-1022.985,530.08V518.269a1.068,1.068,0,0,1,1.067-1.067,1.068,1.068,0,0,1,1.067,1.067v9.677h9.677a1.068,1.068,0,0,1,1.067,1.067,1.068,1.068,0,0,1-1.067,1.067Z" transform="translate(1022.985 -517.202)"/></g><g transform="translate(0 40.449)"><path class="a" d="M-1044.349,764.553a1.081,1.081,0,0,1-.921-1.049,1.083,1.083,0,0,1,.922-1.077h.167a1.06,1.06,0,0,1,1.045,1.046,1.062,1.062,0,0,1-1.045,1.076Zm-3.977-.124a1.075,1.075,0,0,1-.716-.376,1.043,1.043,0,0,1-.245-.774,1.075,1.075,0,0,1,1.076-.988c.026,0,.053,0,.079,0a1.066,1.066,0,0,1,.967,1.15,1.059,1.059,0,0,1-1.068.985Zm8.138-.161a1.058,1.058,0,0,1-1.055-.925,1.072,1.072,0,0,1,.929-1.2,1.087,1.087,0,0,1,.136-.009,1.048,1.048,0,0,1,1.045.933,1.062,1.062,0,0,1-.216.795,1.067,1.067,0,0,1-.7.4Zm-12.02-.389a1.355,1.355,0,0,1-.209-.01,1.07,1.07,0,0,1-.849-1.249,1.084,1.084,0,0,1,1.057-.871,1.05,1.05,0,0,1,.193.018,1.086,1.086,0,0,1,.853,1.25A1.062,1.062,0,0,1-1052.207,763.879Zm15.981-.3a1.076,1.076,0,0,1-1.033-.83,1.039,1.039,0,0,1,.13-.807,1.088,1.088,0,0,1,.672-.478,1.092,1.092,0,0,1,.234-.026,1.074,1.074,0,0,1,1.044.829,1.072,1.072,0,0,1-.8,1.278A.978.978,0,0,1-1036.225,763.583Zm-19.9-.658a1.078,1.078,0,0,1-.31-.042,1.066,1.066,0,0,1-.634-.513,1.047,1.047,0,0,1-.081-.807,1.078,1.078,0,0,1,1.025-.762,1.078,1.078,0,0,1,.31.046,1.035,1.035,0,0,1,.631.5,1.059,1.059,0,0,1,.084.82A1.077,1.077,0,0,1-1056.128,762.925Zm23.771-.457a1.071,1.071,0,0,1-1-.713,1.06,1.06,0,0,1,.662-1.356,1.055,1.055,0,0,1,.344-.058,1.07,1.07,0,0,1,1.01.721,1.067,1.067,0,0,1-.662,1.354A1,1,0,0,1-1032.357,762.469Zm-27.571-.9a1.141,1.141,0,0,1-.411-.076,1.071,1.071,0,0,1-.569-1.4,1.083,1.083,0,0,1,.991-.656,1.065,1.065,0,0,1,.408.081,1.071,1.071,0,0,1,.575,1.4A1.071,1.071,0,0,1-1059.929,761.569Zm31.318-.6a1.056,1.056,0,0,1-.971-.618,1.037,1.037,0,0,1-.044-.807,1.046,1.046,0,0,1,.553-.6,1.079,1.079,0,0,1,.463-.106,1.058,1.058,0,0,1,.957.615,1.05,1.05,0,0,1,.042.818,1.049,1.049,0,0,1-.552.6A1.148,1.148,0,0,1-1028.611,760.965Zm-34.944-1.128a1.02,1.02,0,0,1-.509-.139,1.043,1.043,0,0,1-.51-.634,1.039,1.039,0,0,1,.092-.8,1.051,1.051,0,0,1,.93-.565,1.038,1.038,0,0,1,.507.133,1.05,1.05,0,0,1,.521.632,1.062,1.062,0,0,1-.09.821A1.069,1.069,0,0,1-1063.555,759.837Zm38.5-.752a1.054,1.054,0,0,1-.916-.507,1.072,1.072,0,0,1,.363-1.48,1.076,1.076,0,0,1,.538-.145,1.074,1.074,0,0,1,.92.521,1.039,1.039,0,0,1,.126.8,1.053,1.053,0,0,1-.486.661A1.028,1.028,0,0,1-1025.052,759.085Zm-41.927-1.356a1.079,1.079,0,0,1-.613-.2,1.053,1.053,0,0,1-.438-.69,1.035,1.035,0,0,1,.174-.787,1.053,1.053,0,0,1,.877-.469,1.089,1.089,0,0,1,.611.188,1.065,1.065,0,0,1,.265,1.478A1.06,1.06,0,0,1-1066.979,757.728Zm45.271-.873a1.022,1.022,0,0,1-.849-.433,1.07,1.07,0,0,1,.209-1.5,1.048,1.048,0,0,1,.633-.211,1.055,1.055,0,0,1,.859.435,1.061,1.061,0,0,1,.2.793,1.06,1.06,0,0,1-.415.7A1.1,1.1,0,0,1-1021.708,756.855Zm-48.467-1.585a1.082,1.082,0,0,1-.7-.258,1.034,1.034,0,0,1-.369-.716,1.063,1.063,0,0,1,.253-.787,1.068,1.068,0,0,1,.812-.375,1.065,1.065,0,0,1,.692.257,1.064,1.064,0,0,1,.371.729,1.059,1.059,0,0,1-.254.776A1.077,1.077,0,0,1-1070.175,755.271Zm51.57-.994a1.1,1.1,0,0,1-.794-.344,1.065,1.065,0,0,1,.065-1.5,1.036,1.036,0,0,1,.718-.288,1.06,1.06,0,0,1,.786.348,1.027,1.027,0,0,1,.287.747,1.078,1.078,0,0,1-.351.76A1.019,1.019,0,0,1-1018.606,754.277Zm-54.5-1.773a1.025,1.025,0,0,1-.762-.326,1.073,1.073,0,0,1-.3-.766,1.044,1.044,0,0,1,.327-.742,1.072,1.072,0,0,1,.74-.3,1.041,1.041,0,0,1,.763.327,1.073,1.073,0,0,1-.033,1.519A1.063,1.063,0,0,1-1073.1,752.5Zm57.3-1.1a1.05,1.05,0,0,1-.7-.266,1.073,1.073,0,0,1-.355-.737,1.044,1.044,0,0,1,.269-.766l.105-.117a1.051,1.051,0,0,1,.684-.248,1.108,1.108,0,0,1,.719.268,1.065,1.065,0,0,1,.082,1.5A1.035,1.035,0,0,1-1015.8,751.4Zm-59.936-1.947a1.093,1.093,0,0,1-.846-.407,1.067,1.067,0,0,1-.214-.79,1.067,1.067,0,0,1,.409-.713,1.058,1.058,0,0,1,.652-.225,1.058,1.058,0,0,1,.841.417,1.062,1.062,0,0,1-.181,1.5A1.1,1.1,0,0,1-1075.735,749.456Zm62.447-1.2a1.036,1.036,0,0,1-.617-.2,1.051,1.051,0,0,1-.432-.694,1.042,1.042,0,0,1,.184-.787,1.073,1.073,0,0,1,.873-.452,1.043,1.043,0,0,1,.62.2,1.049,1.049,0,0,1,.433.69,1.064,1.064,0,0,1-.186.794A1.087,1.087,0,0,1-1013.288,748.26Zm-64.744-2.109a1.039,1.039,0,0,1-.906-.5,1.072,1.072,0,0,1,.343-1.477,1.06,1.06,0,0,1,.555-.156,1.088,1.088,0,0,1,.916.5,1.073,1.073,0,0,1,.133.808,1.049,1.049,0,0,1-.473.663A1.114,1.114,0,0,1-1078.031,746.152Zm66.919-1.289a1,1,0,0,1-.516-.135,1.053,1.053,0,0,1-.508-.647,1.044,1.044,0,0,1,.107-.8,1.069,1.069,0,0,1,.932-.545,1.063,1.063,0,0,1,.521.137,1.082,1.082,0,0,1,.5.651,1.047,1.047,0,0,1-.107.809A1.062,1.062,0,0,1-1011.112,744.863Zm-68.867-2.229a1.072,1.072,0,0,1-.96-.6,1.07,1.07,0,0,1,.489-1.43,1.085,1.085,0,0,1,.472-.109,1.072,1.072,0,0,1,.961.6,1.077,1.077,0,0,1-.493,1.429A1.068,1.068,0,0,1-1079.979,742.633Zm70.68-1.356a1.036,1.036,0,0,1-.422-.1,1.071,1.071,0,0,1-.547-1.413,1.066,1.066,0,0,1,.979-.63,1.083,1.083,0,0,1,.431.09,1.051,1.051,0,0,1,.557.591,1.064,1.064,0,0,1-.015.817A1.092,1.092,0,0,1-1009.3,741.277Zm-72.265-2.35a1.06,1.06,0,0,1-1-.705,1.036,1.036,0,0,1,.034-.8,1.069,1.069,0,0,1,.608-.562,1.059,1.059,0,0,1,.366-.065,1.052,1.052,0,0,1,1,.7,1.07,1.07,0,0,1-.628,1.37A1.155,1.155,0,0,1-1081.563,738.927Zm73.7-1.424a1.206,1.206,0,0,1-.337-.042,1.056,1.056,0,0,1-.611-.53,1.056,1.056,0,0,1-.066-.812,1.057,1.057,0,0,1,1.007-.748,1.034,1.034,0,0,1,.323.052,1.072,1.072,0,0,1,.7,1.346A1.07,1.07,0,0,1-1007.862,737.5Zm-74.884-2.417a1.066,1.066,0,0,1-1.021-.81,1.049,1.049,0,0,1,.114-.81,1.041,1.041,0,0,1,.651-.482,1.081,1.081,0,0,1,.272-.035,1.074,1.074,0,0,1,1.034.8,1.094,1.094,0,0,1-.784,1.3A1.16,1.16,0,0,1-1082.745,735.086Zm75.918-1.464a.748.748,0,0,1-.206-.03l-.021,0a1.052,1.052,0,0,1-.677-.461,1.035,1.035,0,0,1-.143-.794,1.056,1.056,0,0,1,1.028-.85,1.046,1.046,0,0,1,.227.025,1.054,1.054,0,0,1,.681.461,1.036,1.036,0,0,1,.144.794A1.066,1.066,0,0,1-1006.828,733.622Zm-76.683-2.5a1.071,1.071,0,0,1-1.056-.917,1.047,1.047,0,0,1,.2-.783,1.07,1.07,0,0,1,.71-.423,1.08,1.08,0,0,1,.133-.008,1.086,1.086,0,0,1,1.072.917,1.059,1.059,0,0,1-.205.8,1.034,1.034,0,0,1-.7.4l-.02,0A.721.721,0,0,1-1083.511,731.124Zm77.169-1.491a1.072,1.072,0,0,1-.936-1.176,1.065,1.065,0,0,1,1.056-.953,1.06,1.06,0,0,1,.117.006,1.034,1.034,0,0,1,.715.38,1.061,1.061,0,0,1,.236.793,1.065,1.065,0,0,1-1.055.949Zm-77.531-2.511a1.075,1.075,0,0,1-1.067-1.024,1.07,1.07,0,0,1,1.023-1.111h.04a1.077,1.077,0,0,1,1.072,1.024,1.069,1.069,0,0,1-1.019,1.111Z" transform="translate(1084.942 -724.987)"/></g><g transform="translate(26.826 16.116)"><path class="a" d="M-946.039,650.478a1.138,1.138,0,0,1-.916-.477,1.022,1.022,0,0,1-.112-.958l6.205-17.375h-3.858a1.061,1.061,0,0,1-.908-.506,1.06,1.06,0,0,1-.047-1.038l5.943-11.885h-3.645a1.055,1.055,0,0,1-.925-.536,1.055,1.055,0,0,1,0-1.069l9.4-16.115a1.07,1.07,0,0,1,.922-.53h12.087a1.056,1.056,0,0,1,.923.531,1.056,1.056,0,0,1,0,1.065l-4.46,7.8h2.19a1.058,1.058,0,0,1,.918.522,1.059,1.059,0,0,1,.019,1.056l-7.2,13.195h2.232a1.046,1.046,0,0,1,.958.6,1.046,1.046,0,0,1-.116,1.124l-18.8,24.173a1.011,1.011,0,0,1-.819.421Zm4.521-34.374H-938a1.06,1.06,0,0,1,.908.506,1.06,1.06,0,0,1,.047,1.038l-5.943,11.885h3.645a1.055,1.055,0,0,1,.872.452,1.055,1.055,0,0,1,.133.973l-3.9,10.915.477.262,12.321-15.841h-1.847a1.058,1.058,0,0,1-.918-.522,1.058,1.058,0,0,1-.019-1.056l7.2-13.194h-2.231a1.056,1.056,0,0,1-.923-.531,1.056,1.056,0,0,1,0-1.065l4.459-7.8h-9.635Z" transform="translate(947.137 -599.988)"/></g></g></g></svg>