<?xml version="1.0" standalone="no"?>
<!DOCTYPE svg PUBLIC "-//W3C//DTD SVG 20010904//EN"
 "http://www.w3.org/TR/2001/REC-SVG-20010904/DTD/svg10.dtd">
<svg version="1.0" xmlns="http://www.w3.org/2000/svg"
 width="1336.000000pt" height="1336.000000pt" viewBox="0 0 1336.000000 1336.000000"
 preserveAspectRatio="xMidYMid meet">
<metadata>
Created by potrace 1.11, written by Peter Selinger 2001-2013
</metadata>
<g transform="translate(0.000000,1336.000000) scale(0.100000,-0.100000)"
fill="#000000" stroke="none">
<path d="M250 9273 c-72 -24 -117 -61 -145 -119 -37 -78 -28 -170 22 -237 31
-41 113 -87 154 -87 26 0 42 -23 54 -76 2 -6 10 -27 18 -45 8 -19 38 -95 67
-169 28 -74 58 -149 66 -167 7 -17 14 -35 14 -40 0 -7 32 -90 61 -158 5 -11
31 -81 59 -155 28 -74 55 -144 59 -155 14 -34 33 -79 40 -95 4 -8 14 -36 22
-62 7 -27 17 -48 21 -48 4 0 7 -3 6 -7 0 -5 2 -17 7 -28 4 -11 18 -49 32 -85
13 -36 28 -74 33 -85 4 -11 22 -58 40 -105 18 -47 36 -94 40 -105 5 -11 20
-49 34 -85 14 -36 30 -78 37 -95 7 -16 13 -33 14 -37 2 -5 4 -10 5 -13 1 -3 3
-8 4 -12 2 -5 10 -26 19 -48 l17 -40 1188 2 c653 0 1190 1 1195 2 4 1 7 6 7
11 0 6 9 29 19 53 11 23 31 74 45 112 15 39 31 78 36 87 6 10 10 23 10 29 0 6
6 25 14 42 8 18 80 203 161 412 80 209 150 389 155 400 5 11 35 88 66 170 31
83 63 164 70 182 8 17 14 34 14 38 0 3 11 31 25 60 13 30 27 67 31 82 4 16 10
33 14 38 4 6 22 52 41 103 31 86 35 92 62 92 64 0 153 67 183 138 48 116 -20
263 -137 298 -36 11 -407 14 -2014 13 -1084 0 -1977 -3 -1985 -6z m709 -469
c17 -14 31 -31 31 -38 0 -7 9 -31 20 -54 11 -22 20 -46 20 -52 0 -5 4 -18 9
-28 16 -32 27 -59 121 -302 40 -102 76 -194 81 -205 5 -11 31 -78 59 -150 28
-71 54 -139 59 -150 5 -11 20 -49 34 -85 14 -36 51 -129 81 -206 31 -78 56
-146 56 -152 0 -5 6 -12 13 -14 6 -3 145 -3 307 -2 162 2 414 4 558 5 l264 2
30 -30 c44 -44 45 -94 3 -139 -32 -33 -34 -34 -116 -35 -46 0 -266 -2 -489 -5
-223 -2 -447 -5 -498 -6 -50 -2 -92 -1 -92 2 0 4 -15 4 -34 2 -21 -2 -44 3
-59 13 -23 15 -64 86 -72 124 -2 9 -14 43 -28 76 -14 33 -71 177 -127 320 -56
143 -106 269 -111 280 -22 49 -139 356 -145 379 -3 14 -10 26 -15 26 -5 0 -9
5 -9 12 0 18 -71 205 -110 290 -46 99 76 192 159 122z"/>
<path d="M4675 9261 c-124 -57 -176 -212 -106 -321 37 -58 106 -104 170 -112
30 -4 27 1 106 -208 37 -96 70 -184 75 -195 5 -11 20 -49 34 -85 51 -135 117
-306 126 -325 5 -11 50 -128 100 -260 51 -132 98 -254 106 -272 8 -17 14 -35
14 -40 1 -4 9 -26 20 -48 11 -22 19 -44 20 -50 0 -8 41 -113 85 -220 7 -16 25
-64 40 -105 15 -41 32 -80 36 -86 5 -6 7 -13 5 -15 -7 -7 2369 -3 2381 4 6 4
24 40 38 80 15 39 33 86 40 102 26 62 142 365 144 377 1 4 11 29 22 55 11 27
66 165 121 308 55 143 120 312 144 375 25 63 49 124 53 135 5 11 35 88 66 170
32 83 63 164 70 180 7 17 20 51 30 78 15 39 22 47 44 47 36 1 101 32 133 64
94 96 85 254 -19 336 -68 53 58 50 -2077 50 -1897 0 -1983 -1 -2021 -19z m728
-451 c18 -14 44 -67 87 -178 34 -86 68 -171 76 -189 8 -17 14 -34 14 -37 0 -4
7 -23 16 -44 10 -20 18 -41 19 -47 3 -12 132 -337 150 -380 8 -16 25 -61 39
-100 15 -38 30 -79 36 -90 5 -11 41 -101 80 -201 l70 -180 248 2 c837 8 869 7
900 -11 57 -34 63 -116 10 -160 -25 -21 -40 -25 -101 -26 -40 0 -252 -2 -472
-5 -220 -2 -461 -4 -535 -5 -149 -2 -185 7 -207 51 -19 39 -46 106 -52 132 -2
7 -16 40 -60 143 -5 11 -14 36 -21 55 -13 38 -18 49 -49 122 -12 26 -21 49
-21 52 0 5 -136 353 -163 416 -6 14 -11 27 -11 30 -2 6 -45 119 -57 145 -4 11
-43 108 -84 215 -60 154 -75 202 -71 229 11 71 102 105 159 61z"/>
<path d="M9140 9267 c-49 -23 -90 -59 -115 -100 -77 -133 3 -307 155 -333 42
-8 50 -13 50 -34 0 -11 5 -20 11 -20 5 0 8 -4 4 -9 -3 -5 -1 -12 5 -16 5 -3
10 -13 10 -22 0 -8 7 -29 15 -46 8 -18 35 -86 60 -152 26 -66 52 -131 57 -145
6 -14 12 -31 14 -38 3 -18 73 -193 84 -214 6 -10 10 -23 10 -30 1 -7 9 -31 20
-53 11 -22 19 -44 20 -48 0 -5 6 -23 14 -40 8 -18 32 -79 54 -137 22 -58 66
-170 97 -250 69 -176 99 -253 100 -260 0 -3 24 -66 54 -140 29 -74 62 -160 74
-190 11 -30 26 -59 32 -65 15 -13 2390 -12 2390 1 0 12 36 106 45 119 4 6 10
23 14 39 4 15 15 47 26 70 10 22 37 91 60 151 24 61 51 133 62 160 11 28 21
55 22 60 2 6 8 21 13 35 6 14 50 126 97 250 48 124 93 239 100 255 7 17 28 71
46 120 18 50 38 104 46 120 8 17 33 82 57 145 25 63 66 172 93 243 l49 127 57
16 c59 17 138 74 138 100 0 8 4 14 9 14 14 0 28 73 25 125 -6 74 -75 175 -120
175 -7 0 -14 6 -16 13 -6 17 -4000 21 -4038 4z m741 -460 c17 -15 51 -88 108
-232 45 -115 86 -219 91 -230 19 -41 62 -151 65 -165 2 -8 12 -35 23 -60 11
-25 47 -117 81 -205 34 -88 66 -169 71 -180 5 -11 20 -49 34 -85 21 -55 42
-109 52 -130 1 -3 5 -14 9 -25 3 -11 17 -45 29 -75 l22 -55 295 2 c162 0 407
2 544 3 138 1 260 1 271 1 12 -1 36 -14 53 -30 51 -48 41 -125 -21 -157 -27
-14 -90 -17 -472 -20 -243 -1 -443 -4 -446 -5 -3 -1 -8 -1 -11 -1 -13 2 -76 2
-151 2 -162 -2 -166 -2 -197 28 -18 16 -42 60 -61 112 -32 84 -153 396 -170
435 -4 11 -15 36 -24 57 -9 20 -16 39 -16 43 0 4 -7 23 -16 43 -9 21 -20 46
-24 57 -18 43 -195 497 -242 620 -27 72 -53 135 -57 140 -3 6 -6 17 -5 25 1 8
2 23 3 33 0 11 15 32 32 48 39 37 92 39 130 6z"/>
<path d="M234 6470 c-49 -17 -106 -66 -132 -115 -22 -42 -22 -149 1 -197 22
-47 86 -101 136 -116 27 -9 196 -12 573 -12 417 0 538 -3 545 -12 12 -15 54
-127 56 -145 0 -7 4 -13 9 -13 4 0 8 -6 8 -14 0 -11 10 -40 50 -141 4 -11 15
-36 23 -55 9 -19 23 -56 31 -81 9 -25 23 -64 33 -85 9 -21 17 -41 18 -44 1 -7
44 -118 60 -155 8 -16 17 -43 21 -60 4 -16 10 -34 14 -40 4 -5 21 -48 39 -95
18 -47 36 -94 41 -105 5 -11 20 -51 35 -90 15 -38 41 -108 60 -155 45 -115 48
-124 49 -130 1 -3 15 -41 33 -85 29 -74 44 -113 48 -125 1 -3 9 -22 18 -42 10
-21 17 -42 17 -49 0 -6 6 -23 14 -37 8 -15 24 -53 36 -85 13 -31 27 -60 32
-63 8 -5 73 -6 211 -3 6 0 104 0 217 -1 113 -1 210 0 215 1 6 1 20 0 33 -1 68
-5 182 -4 182 2 0 4 6 5 14 2 21 -8 146 -10 146 -2 0 4 12 3 28 0 15 -4 38 -7
52 -6 63 5 98 5 290 4 113 0 210 0 215 1 6 1 19 0 31 0 73 -6 341 -5 338 1 -3
4 8 5 23 2 47 -9 621 -10 616 0 -3 4 4 5 16 1 16 -5 317 -7 466 -4 6 0 27 -1
48 -2 20 -1 39 0 40 2 2 2 23 39 46 83 86 161 213 291 317 322 37 11 207 21
239 14 6 -1 12 -2 15 -1 8 2 454 3 465 1 6 -2 13 -2 18 -1 11 3 290 3 302 1 6
-1 12 -2 15 -1 8 2 454 3 465 1 6 -2 12 -2 15 -1 17 5 461 1 469 -3 5 -4 12
-2 16 3 4 7 15 7 30 1 14 -5 25 -7 25 -5 0 10 86 -29 120 -54 88 -64 182 -180
239 -295 l33 -66 47 0 c25 0 125 -1 223 -3 97 -1 174 2 171 7 -3 4 4 5 16 1
12 -4 120 -6 239 -5 119 0 222 1 227 1 6 0 102 0 215 -1 113 -1 210 0 215 1 6
1 20 0 33 -1 68 -5 182 -4 182 2 0 4 6 5 14 2 21 -8 146 -10 146 -2 0 4 12 3
28 0 15 -4 38 -7 52 -6 63 5 98 5 290 4 113 0 210 0 215 1 6 1 20 0 33 -1 68
-5 182 -4 182 2 0 4 6 5 14 2 21 -8 146 -10 146 -2 0 4 12 3 28 0 15 -4 38 -7
52 -6 63 5 93 5 205 4 66 -1 143 -1 170 -1 l50 1 34 88 c18 48 40 105 48 127
7 22 17 49 22 60 35 82 71 177 71 190 0 8 4 15 8 15 5 0 9 6 10 13 1 21 37
112 45 115 4 2 7 10 7 18 0 8 20 65 44 126 116 295 176 449 176 456 1 4 9 25
20 47 11 22 19 47 20 55 0 9 4 20 8 25 5 6 19 39 31 75 13 36 29 79 37 95 7
17 41 102 74 190 34 88 66 172 72 187 l10 27 557 3 c622 3 590 0 659 76 40 46
55 91 56 163 0 46 -6 63 -32 100 -42 60 -70 84 -117 99 -33 11 -1156 14 -6463
14 -5722 1 -6427 -1 -6468 -14z m1785 -466 c12 -14 29 -42 36 -62 7 -21 19
-50 26 -67 6 -16 13 -35 14 -41 2 -6 10 -27 18 -45 30 -66 310 -784 306 -784
-1 0 4 -11 11 -25 8 -14 15 -28 16 -32 1 -5 3 -10 4 -13 1 -3 3 -8 4 -12 1 -5
8 -19 16 -33 7 -14 13 -26 12 -28 -1 -1 5 -18 13 -38 8 -20 15 -40 15 -45 0
-5 4 -17 9 -27 12 -22 34 -76 56 -135 l18 -48 554 5 c365 3 565 1 584 -6 81
-28 75 -157 -8 -185 -16 -5 -199 -11 -408 -12 -209 -2 -474 -4 -590 -5 -115
-1 -222 2 -238 7 -27 9 -67 55 -67 77 0 6 -8 30 -18 53 -10 23 -27 62 -36 87
-10 25 -22 54 -27 65 -14 33 -173 440 -175 445 0 3 -6 19 -13 35 -7 17 -24 59
-38 95 -28 75 -84 218 -188 480 -78 198 -88 233 -72 265 22 45 39 55 92 55 43
0 55 -4 74 -26z"/>
</g>
</svg>
