<svg xmlns="http://www.w3.org/2000/svg" width="49.755" height="56.971" viewBox="0 0 49.755 56.971"><defs><style>.a{fill:#fff;}</style></defs><g transform="translate(-251.364 -464)"><g transform="translate(277.225 507.019)"><path class="a" d="M308.821,543.586H296.713a.984.984,0,0,1-.917-.628l-3.561-9.19a2.128,2.128,0,0,1,.713-4.134h19.637a2.129,2.129,0,0,1,.712,4.135l-3.56,9.189A.984.984,0,0,1,308.821,543.586Zm-11.435-1.966h10.762l3.512-9.066a.984.984,0,0,1,.917-.628.163.163,0,1,0,.009-.326H292.948a.167.167,0,0,0-.162.163.164.164,0,0,0,.162.163,1,1,0,0,1,.925.628Z" transform="translate(-290.82 -529.634)"/></g><g transform="translate(251.364 507.019)"><path class="a" d="M269.365,543.586H257.257a.984.984,0,0,1-.917-.628l-3.56-9.19a2.128,2.128,0,0,1,.714-4.134H273.13a2.129,2.129,0,0,1,.712,4.136l-3.56,9.189A.984.984,0,0,1,269.365,543.586ZM257.93,541.62h10.762l3.512-9.066a.983.983,0,0,1,.917-.628.169.169,0,0,0,.171-.163.167.167,0,0,0-.163-.163H253.493a.167.167,0,0,0-.163.163.165.165,0,0,0,.163.163,1,1,0,0,1,.925.628Z" transform="translate(-251.364 -529.634)"/></g><g transform="translate(277.225 491.288)"><path class="a" d="M308.821,519.586H296.713a.984.984,0,0,1-.917-.628l-3.561-9.19a2.128,2.128,0,0,1,.713-4.134h19.637a2.129,2.129,0,0,1,.712,4.135l-3.56,9.189A.984.984,0,0,1,308.821,519.586Zm-11.435-1.966h10.762l3.512-9.066a.984.984,0,0,1,.917-.628.163.163,0,1,0,.009-.326H292.948a.167.167,0,0,0-.162.163.164.164,0,0,0,.162.163,1,1,0,0,1,.925.628Z" transform="translate(-290.82 -505.634)"/></g><g transform="translate(251.364 491.288)"><path class="a" d="M269.365,519.586H257.257a.984.984,0,0,1-.917-.628l-3.56-9.19a2.128,2.128,0,0,1,.714-4.134H273.13a2.129,2.129,0,0,1,.712,4.136l-3.56,9.189A.984.984,0,0,1,269.365,519.586ZM257.93,517.62h10.762l3.512-9.066a.984.984,0,0,1,.917-.628.169.169,0,0,0,.171-.163.167.167,0,0,0-.163-.163H253.493a.167.167,0,0,0-.163.163.165.165,0,0,0,.163.163,1,1,0,0,1,.925.628Z" transform="translate(-251.364 -505.634)"/></g><g transform="translate(274.209 464)"><path class="a" d="M296.522,469.646v-4.709a.937.937,0,0,0-1.633-.627l-8.431,9.368a.937.937,0,0,0-.029,1.218l8.431,10.3a.937.937,0,0,0,1.662-.591v-4.668c7.4.241,12.019,3.4,14.1,9.649a.937.937,0,0,0,.888.64.965.965,0,0,0,.151-.012.937.937,0,0,0,.786-.925C312.449,478.262,305.807,470.157,296.522,469.646Zm-.937,8.406a.937.937,0,0,0-.937.937v3l-6.261-7.653,6.261-6.955v3.18a.937.937,0,0,0,.937.937c7.364,0,12.874,5.1,14.5,12.87C307.068,480.171,302.213,478.052,295.586,478.052Z" transform="translate(-286.218 -464)"/></g></g></svg>