<svg xmlns="http://www.w3.org/2000/svg" width="54.085" height="52.276" viewBox="0 0 54.085 52.276"><defs><style>.a{fill:#fff;}</style></defs><g transform="translate(0 -8.028)"><g transform="translate(12.62 8.028)"><g transform="translate(0 0)"><path class="a" d="M148.458,14.428a.9.9,0,0,0-.8.007l-3.885,1.97-3.04-5.222a5.96,5.96,0,0,0-5.286-3.155H120.423a6.427,6.427,0,0,0-5.483,3.1l-2.794,4.541a.9.9,0,0,0,.284,1.233l9.914,6.309a.9.9,0,0,0,.483.141.887.887,0,0,0,.222-.028.9.9,0,0,0,.566-.435l3.786-6.811,4.146,7.841-3.775,2.265a.9.9,0,0,0,.361,1.669l13.414,1.525a.961.961,0,0,0,.1.005.9.9,0,0,0,.811-.508l6.415-13.242A.9.9,0,0,0,148.458,14.428ZM122.5,21.175l-8.358-5.318,2.334-3.793a4.62,4.62,0,0,1,3.942-2.233h3.659l2.233,4.484Zm18.613,6.339L130.98,26.361l2.227-1.337a.9.9,0,0,0,.333-1.193l-7.4-14h9.31a4.2,4.2,0,0,1,3.728,2.253l3.468,5.96a.9.9,0,0,0,1.186.349l2.259-1.145Z" transform="translate(-112.013 -8.028)"/></g></g><g transform="translate(22.534 26.951)"><g transform="translate(0 0)"><path class="a" d="M230.771,182.3l-2.913-5.819a.9.9,0,0,0-1.209-.4l-.053.029-10.816,6.309a.9.9,0,0,0-.333,1.217l3.76,6.776h-8.382v-3.605a.9.9,0,0,0-1.568-.607l-9.013,9.914a.9.9,0,0,0-.047,1.156l9.013,11.717a.9.9,0,0,0,1.615-.55v-2.7h6.309a5.769,5.769,0,0,0,5.285-3.155l6.309-10.81,1.875-3.028A6.387,6.387,0,0,0,230.771,182.3Zm-9.919,19.389a4.015,4.015,0,0,1-3.718,2.239h-7.21a.9.9,0,0,0-.9.9v.955l-6.94-9.019,6.94-7.632v2.176a.9.9,0,0,0,.9.9h16.457Zm8.215-13.9-1.622,2.614H221.27l-3.82-6.874,9.223-5.382,2.5,4.993A4.6,4.6,0,0,1,229.067,187.8Z" transform="translate(-200.01 -175.985)"/></g></g><g transform="translate(0 22.448)"><g transform="translate(0 0)"><path class="a" d="M21.55,148.255l-5.408-11.717a.9.9,0,0,0-.875-.524l-14.421.9a.9.9,0,0,0-.419,1.666v0l4.456,2.763L1.909,147.3a6.49,6.49,0,0,0,.016,6.288l5.016,8.662L9.684,167a6.621,6.621,0,0,0,5.64,3.262h3.605a.9.9,0,0,0,.9-.9V156.744a.9.9,0,0,0-.9-.9H12.2l4.5-7.8,3.717,1.431a.9.9,0,0,0,1.142-1.219Zm-3.522,9.391v10.816h-2.7a4.789,4.789,0,0,1-4.08-2.359l-2.474-4.287,2.553-4.17Zm-1.409-11.563a.9.9,0,0,0-1.1.391L7.718,160l-4.233-7.312a4.687,4.687,0,0,1,.031-4.555l3.352-6.718a.9.9,0,0,0-.332-1.172L3.78,138.538l10.984-.684,4.218,9.139Z" transform="translate(0 -136.012)"/></g></g></g></svg>