<svg xmlns="http://www.w3.org/2000/svg" width="57.811" height="38.103" viewBox="0 0 57.811 38.103"><defs><style>.a{fill:#fff;}</style></defs><g transform="translate(0 -87.27)"><g transform="translate(0 87.27)"><path class="a" d="M57.811,97.1a4.062,4.062,0,0,0-.83-2.5L52.4,88.742a3.939,3.939,0,0,0-3.1-1.472,3.819,3.819,0,0,0-2.026.567l-4.466,2.779a4.075,4.075,0,0,1-2.053.5,3.721,3.721,0,0,1-1.574-.309l-4.374-2.119a5.268,5.268,0,0,0-2.283-.48,5.687,5.687,0,0,0-3.21.925l-.51.358-1.737-.865a6.552,6.552,0,0,0-2.848-.586,6.815,6.815,0,0,0-2.615.48l-2.979,1.271a5.447,5.447,0,0,1-2.022.344,5.444,5.444,0,0,1-2.021-.344L11.6,88.519a4.34,4.34,0,0,0-1.7-.332,5.182,5.182,0,0,0-1.936.38,4.4,4.4,0,0,0-1.633,1.124L.9,95.771a3.525,3.525,0,0,0,.344,5.039l5.064,4.32-2.4,2.506a3.579,3.579,0,0,0,.123,5.069l.487.463a3.574,3.574,0,0,0,1.588.861,3.539,3.539,0,0,0,.667,4.3h0l.489.465a3.625,3.625,0,0,0,3.892.7,3.542,3.542,0,0,0,1,1.734l.489.465a3.618,3.618,0,0,0,4.483.385,3.554,3.554,0,0,0,.937,1.539l.489.465a3.622,3.622,0,0,0,5.094-.121l2.123-2.217,2.885,2.67a3.62,3.62,0,0,0,5.09-.183l.46-.493A3.552,3.552,0,0,0,35,122.28l1.117,1.031a3.626,3.626,0,0,0,5.093-.188l.458-.493a3.54,3.54,0,0,0,.918-1.979,3.526,3.526,0,0,0,3.536-1.015l.459-.493a3.569,3.569,0,0,0,.96-2.44,3.66,3.66,0,0,0-.1-.8,3.57,3.57,0,0,0,2.161-1.094l.46-.493a3.584,3.584,0,0,0-.187-5.069l-.861-.8,7.773-8.594A4.092,4.092,0,0,0,57.811,97.1ZM7,112.2a1.635,1.635,0,0,1-1.129-.447l-.488-.463a1.63,1.63,0,0,1-.056-2.3l4.92-5.134a1.651,1.651,0,0,1,2.316-.055l.486.464a3.083,3.083,0,0,1,.5,1.181,1.621,1.621,0,0,1-.291.922L7.954,111.9A1.657,1.657,0,0,1,7,112.2Zm3.93,5.121a1.652,1.652,0,0,1-2.315.055l-.489-.465h0a1.634,1.634,0,0,1-.055-2.3s6.559-6.827,6.614-6.893a1.642,1.642,0,0,1,2.264-.011l.489.465a1.632,1.632,0,0,1,.055,2.3Zm5.375,2.9a1.649,1.649,0,0,1-2.314.055l-.49-.465a1.619,1.619,0,0,1-.143-2.195l4.568-4.767a1.637,1.637,0,0,1,2.224.022l.49.465a1.631,1.631,0,0,1,.055,2.3Zm8.679-.5-2.772,2.893a1.65,1.65,0,0,1-2.315.055l-.489-.465a1.631,1.631,0,0,1-.055-2.3l2.77-2.892a1.652,1.652,0,0,1,2.316-.055l.49.465a1.632,1.632,0,0,1,.054,2.3Zm24.077-7.846a1.614,1.614,0,0,1-.436,1.108l-.459.493a1.651,1.651,0,0,1-2.314.084l-7.022-6.494a.981.981,0,0,0-1.382.051h0a.981.981,0,0,0,.05,1.389l7.561,7a1.63,1.63,0,0,1,.085,2.3l-.458.493a1.65,1.65,0,0,1-2.313.085L35.349,111.9a.98.98,0,0,0-1.382.051h0a.98.98,0,0,0,.051,1.388l6.147,5.684a1.628,1.628,0,0,1,.067,2.281l-.459.493a1.653,1.653,0,0,1-2.315.085l-6.141-5.668a.98.98,0,0,0-1.382.053h0a.98.98,0,0,0,.053,1.387l2.738,2.528a1.613,1.613,0,0,1,.029,2.232l-.459.493a1.647,1.647,0,0,1-2.31.084L27,120.219A3.529,3.529,0,0,0,26.289,116l-.49-.465a3.6,3.6,0,0,0-2.484-.987c-.069,0-.139.016-.206.02,0-.016,0-.034,0-.05a6.841,6.841,0,0,0-1.113-2.6l-.489-.464a3.589,3.589,0,0,0-1.813-.924,3.533,3.533,0,0,0-.9-3.782l-.489-.465a3.608,3.608,0,0,0-2.485-.988c-.1,0-.206.021-.309.03a3.569,3.569,0,0,0-1.1-2.484h0l-.487-.463a3.621,3.621,0,0,0-5.094.12l-1.161,1.212L2.524,99.328a1.577,1.577,0,0,1-.153-2.254L7.8,90.994a2.477,2.477,0,0,1,.907-.612A3.231,3.231,0,0,1,9.9,90.147a2.381,2.381,0,0,1,.928.174l2.98,1.272a7.333,7.333,0,0,0,2.8.5,7.334,7.334,0,0,0,2.8-.5l2.979-1.271A4.88,4.88,0,0,1,24.22,90a4.676,4.676,0,0,1,1.968.379l.8.4-3.038,2.136a3.509,3.509,0,0,0-.8,4.981h0l.4.539a3.922,3.922,0,0,0,3.138,1.537,3.811,3.811,0,0,0,1.963-.535l1.817-1.091a2.992,2.992,0,0,1,1.509-.367,3.142,3.142,0,0,1,1.777.5l5.027,3.6a50.206,50.206,0,0,1,3.951,3.224l5.818,5.379A1.621,1.621,0,0,1,49.063,111.875Zm6.268-13.328-7.751,8.571-3.519-3.253a51.783,51.783,0,0,0-4.139-3.377l-5.025-3.6a5.079,5.079,0,0,0-2.927-.868,4.948,4.948,0,0,0-2.525.648l-1.816,1.091a1.844,1.844,0,0,1-.948.254,1.96,1.96,0,0,1-1.56-.746l-.4-.539h0a1.557,1.557,0,0,1,.357-2.216l5.372-3.775a3.781,3.781,0,0,1,2.076-.566,3.328,3.328,0,0,1,1.423.283l4.374,2.119a5.65,5.65,0,0,0,2.434.507,5.983,5.983,0,0,0,3.093-.8L48.316,89.5a1.857,1.857,0,0,1,.984-.27,1.982,1.982,0,0,1,1.55.718l4.581,5.861a2.132,2.132,0,0,1,.417,1.3A2.173,2.173,0,0,1,55.331,98.547Z" transform="translate(0 -87.27)"/></g></g></svg>