<svg width="167" height="65" viewBox="0 0 167 65" fill="none" xmlns="http://www.w3.org/2000/svg">
<path fill-rule="evenodd" clip-rule="evenodd" d="M122.37 5.64801H123.09C123.278 5.70272 123.451 5.79995 123.596 5.93225C123.741 6.06456 123.853 6.22839 123.924 6.41101L130.829 23.959L144.484 23.838C144.652 23.8366 144.818 23.8683 144.974 23.9313C145.13 23.9943 145.271 24.0873 145.391 24.205C145.511 24.3228 145.606 24.463 145.672 24.6176C145.737 24.7721 145.772 24.9381 145.773 25.106C145.774 25.2739 145.743 25.4404 145.68 25.5961C145.617 25.7517 145.524 25.8934 145.406 26.0131C145.288 26.1328 145.148 26.2281 144.993 26.2936C144.839 26.3592 144.673 26.3936 144.505 26.395L130.051 26.525C129.778 26.5449 129.506 26.4769 129.275 26.3309C129.043 26.185 128.865 25.9688 128.765 25.714L121.535 7.34497C121.412 7.02838 121.419 6.67599 121.556 6.36487C121.692 6.05375 121.946 5.80928 122.262 5.685C122.297 5.672 122.333 5.65899 122.369 5.64899L122.37 5.64801ZM163.635 0H115.243C114.494 0 113.776 0.297546 113.246 0.827148C112.716 1.35675 112.419 2.075 112.419 2.82397C112.419 3.57295 112.716 4.29126 113.246 4.82086C113.776 5.35046 114.494 5.64801 115.243 5.64801H115.263L124.519 29.538H154.358L163.613 5.64801H163.634C164.383 5.64801 165.101 5.35046 165.631 4.82086C166.16 4.29126 166.458 3.57295 166.458 2.82397C166.458 2.075 166.16 1.35675 165.631 0.827148C165.101 0.297546 164.383 0 163.634 0H163.635ZM66.4139 5.64801H67.1359C67.324 5.70299 67.497 5.80035 67.6416 5.93262C67.7862 6.06489 67.8985 6.22855 67.97 6.41101L74.8749 23.959L88.5319 23.838C88.6998 23.8368 88.8663 23.8686 89.0219 23.9317C89.1775 23.9948 89.3192 24.0879 89.4388 24.2057C89.5584 24.3236 89.6536 24.4638 89.719 24.6185C89.7844 24.7731 89.8187 24.9391 89.8199 25.107C89.8212 25.2749 89.7894 25.4414 89.7263 25.597C89.6632 25.7526 89.57 25.8942 89.4522 26.0138C89.3344 26.1334 89.1941 26.2287 89.0395 26.2941C88.8848 26.3595 88.7189 26.3938 88.551 26.395L74.0969 26.525C73.824 26.5446 73.5519 26.4765 73.3204 26.3306C73.0889 26.1847 72.91 25.9687 72.8099 25.714L65.582 7.34497C65.4584 7.02842 65.4655 6.67577 65.6019 6.3645C65.7382 6.05323 65.9925 5.80884 66.309 5.685C66.345 5.671 66.3799 5.65901 66.4139 5.64801ZM107.926 0H59.533C58.784 0 58.0657 0.297546 57.5361 0.827148C57.0065 1.35675 56.7089 2.075 56.7089 2.82397C56.7089 3.57295 57.0065 4.29126 57.5361 4.82086C58.0657 5.35046 58.784 5.64801 59.533 5.64801H59.554L68.8099 29.538H98.6509L107.905 5.64801H107.926C108.675 5.64801 109.393 5.35046 109.923 4.82086C110.452 4.29126 110.75 3.57295 110.75 2.82397C110.75 2.075 110.452 1.35675 109.923 0.827148C109.393 0.297546 108.675 0 107.926 0ZM24.8019 40.614H23.8459C23.5328 40.7404 23.2822 40.9852 23.1486 41.2952C23.0149 41.6053 23.0089 41.9556 23.132 42.27L30.358 60.64C30.4576 60.895 30.6361 61.1114 30.8674 61.2577C31.0988 61.404 31.3709 61.4724 31.6439 61.453L46.098 61.322C46.2688 61.3254 46.4385 61.2944 46.5972 61.231C46.7559 61.1677 46.9003 61.0732 47.0219 60.9531C47.1434 60.833 47.2396 60.6898 47.3049 60.5319C47.3701 60.374 47.4031 60.2046 47.4019 60.0338C47.4006 59.8629 47.3651 59.694 47.2975 59.5371C47.2299 59.3802 47.1315 59.2384 47.0082 59.1201C46.8849 59.0019 46.7391 58.9095 46.5795 58.8485C46.4199 58.7875 46.2497 58.7591 46.0789 58.765L32.4219 58.888L25.517 41.339C25.4535 41.1756 25.3572 41.027 25.2341 40.9023C25.1109 40.7776 24.9635 40.6795 24.801 40.614H24.8019ZM11.5179 5.64801H10.796C10.76 5.65801 10.7269 5.67102 10.6909 5.68402C10.3745 5.80787 10.1202 6.05226 9.98389 6.36353C9.84757 6.67479 9.84036 7.02745 9.96393 7.34399L17.194 25.713C17.2936 25.9678 17.4722 26.184 17.7036 26.3299C17.935 26.4758 18.2071 26.5438 18.4799 26.524L32.934 26.394C33.273 26.3912 33.5971 26.2538 33.8349 26.0121C34.0727 25.7704 34.2048 25.4441 34.202 25.105C34.1992 24.7659 34.0618 24.4418 33.8201 24.204C33.5783 23.9662 33.252 23.8342 32.913 23.837L19.257 23.958L12.3519 6.40997C12.2803 6.22755 12.1678 6.06399 12.0231 5.93188C11.8783 5.79978 11.7052 5.70269 11.517 5.64801H11.5179ZM3.82397 0H52.218C52.9669 0 53.6852 0.297546 54.2148 0.827148C54.7444 1.35675 55.0419 2.075 55.0419 2.82397C55.0419 3.57295 54.7444 4.29126 54.2148 4.82086C53.6852 5.35046 52.9669 5.64801 52.218 5.64801H52.1959L42.942 29.538H13.1L3.84393 5.64801H3.82294C3.07397 5.64801 2.35565 5.35046 1.82605 4.82086C1.29645 4.29126 0.998962 3.57295 0.998962 2.82397C0.998962 2.075 1.29645 1.35675 1.82605 0.827148C2.35565 0.297546 3.07397 0 3.82294 0H3.82397ZM55.574 34.968H163.517C163.898 34.952 164.278 35.0132 164.634 35.1478C164.991 35.2825 165.317 35.4879 165.592 35.7516C165.867 36.0154 166.086 36.3321 166.235 36.6826C166.385 37.0332 166.462 37.4104 166.462 37.7915C166.462 38.1726 166.385 38.5498 166.235 38.9004C166.086 39.2509 165.867 39.5676 165.592 39.8314C165.317 40.0951 164.991 40.3005 164.634 40.4352C164.278 40.5699 163.898 40.631 163.517 40.615H150.548L141.292 64.507H101.374L101.337 64.413L101.329 64.39L101.276 64.259L101.261 64.224L101.219 64.124V64.116L101.177 64.022L101.154 63.972C101.115 63.888 101.075 63.801 101.031 63.715L101.013 63.678L100.977 63.611L100.934 63.527L100.923 63.504L100.866 63.396L100.853 63.373L100.777 63.236L100.769 63.223L100.746 63.183L100.683 63.073V63.067L100.622 62.967L100.59 62.913L100.556 62.855L100.493 62.755L100.487 62.745L100.418 62.635L100.394 62.596L100.347 62.524L100.29 62.438L100.274 62.412L100.198 62.302L100.184 62.281L100.171 62.261L100.082 62.135L100.074 62.123L100.044 62.081L99.965 61.971H99.96C99.884 61.871 99.805 61.764 99.726 61.662L99.7159 61.652L99.6309 61.545L99.6039 61.511L99.546 61.44L99.478 61.361L99.457 61.337L99.3679 61.237L99.3519 61.219C99.2659 61.119 99.1789 61.028 99.0919 60.936L99.001 60.844L98.9559 60.799L98.827 60.673L98.8199 60.665L98.809 60.655L98.686 60.542L98.668 60.526L98.549 60.42L98.5399 60.41L98.514 60.387C98.435 60.319 98.354 60.254 98.275 60.187L98.251 60.168L98.2109 60.137L98.111 60.06L98.0889 60.044L97.976 59.963L97.952 59.948L97.8279 59.866L97.8129 59.855L97.7999 59.847L97.6929 59.782L97.6609 59.763L97.6429 59.751L97.5179 59.682L97.4999 59.672C97.3999 59.62 97.2999 59.572 97.2 59.527L97.1849 59.52C97.1349 59.497 97.0849 59.478 97.0369 59.457L96.8959 59.405L96.8569 59.392L96.7339 59.353H96.7189L96.7039 59.348L96.5699 59.314L96.546 59.307L96.4169 59.281H96.39L96.2469 59.26H96.2219L96.106 59.249H96.061L95.97 59.244H71.5319C71.4949 59.244 71.4579 59.244 71.4219 59.249H71.3749L71.259 59.26H71.2349L71.0909 59.281H71.064L70.936 59.307L70.91 59.314L70.7759 59.348L70.7599 59.353H70.7449L70.6219 59.392L70.585 59.405L70.4449 59.457C70.3949 59.478 70.3449 59.497 70.2969 59.52L70.2839 59.527C70.1839 59.57 70.0839 59.62 69.9839 59.672L69.965 59.682L69.8419 59.751L69.824 59.763L69.7919 59.782L69.6849 59.847L69.6719 59.855L69.6559 59.866L69.5309 59.948L69.5079 59.963L69.395 60.044L69.3719 60.06L69.267 60.137L69.2269 60.168L69.2039 60.187C69.1219 60.25 69.043 60.315 68.963 60.387L68.937 60.41L68.9269 60.42L68.8069 60.526L68.7889 60.542L68.666 60.655L68.655 60.665L68.647 60.673L68.5189 60.799L68.4739 60.844L68.3829 60.936C68.2939 61.028 68.2089 61.122 68.1229 61.219L68.1069 61.237L68.017 61.337L67.996 61.361L67.9299 61.44L67.8719 61.511L67.845 61.545L67.7579 61.652L67.752 61.662C67.671 61.762 67.592 61.867 67.515 61.971L67.436 62.081L67.405 62.123L67.397 62.135L67.3079 62.261L67.2949 62.281L67.28 62.302L67.2059 62.412L67.1879 62.438L67.1309 62.524L67.0829 62.596L67.059 62.635L66.9899 62.745V62.755L66.9269 62.855L66.8929 62.913L66.861 62.967L66.7999 63.067V63.073L66.7369 63.183L66.7139 63.223L66.7059 63.236L66.6299 63.373L66.6169 63.396L66.561 63.504L66.548 63.527L66.5059 63.611L66.4719 63.678L66.4529 63.715C66.4109 63.801 66.369 63.888 66.33 63.972L66.3079 64.022L66.2659 64.116V64.124L66.2219 64.224L66.2089 64.259L66.1539 64.39L66.1459 64.413L66.111 64.507H26.1909L16.937 40.615H3.94092C3.56013 40.631 3.18008 40.5699 2.82355 40.4352C2.46701 40.3005 2.14137 40.0951 1.86627 39.8314C1.59117 39.5676 1.37226 39.2509 1.22272 38.9004C1.07317 38.5498 0.996094 38.1726 0.996094 37.7915C0.996094 37.4104 1.07317 37.0332 1.22272 36.6826C1.37226 36.3321 1.59117 36.0154 1.86627 35.7516C2.14137 35.4879 2.46701 35.2825 2.82355 35.1478C3.18008 35.0132 3.56013 34.952 3.94092 34.968H55.574Z" fill="white"/>
</svg>
